HIERARCHY
ROOT Hips
{
	OFFSET -0.001795 -0.223333 0.028219
	CHANNELS 6 Xposition Yposition Zposition Zrotation Yrotation Xrotation 
	JOINT LeftUpLeg
	{
		OFFSET 0.069520 -0.091406 -0.006815
		CHANNELS 3 Zrotation Yrotation Xrotation
		JOINT LeftLeg
		{
			OFFSET 0.034277 -0.375199 -0.004496
			CHANNELS 3 Zrotation Yrotation Xrotation
			JOINT LeftFoot
			{
				OFFSET -0.013596 -0.397961 -0.043693
				CHANNELS 3 Zrotation Yrotation Xrotation
				JOINT LeftToe
				{
					OFFSET 0.026358 -0.055791 0.119288
					CHANNELS 3 Zrotation Yrotation Xrotation
					End Site
					{
						OFFSET 0.000000 0.000000 0.000000
					}
				}
			}
		}
	}
	JOINT RightUpLeg
	{
		OFFSET -0.067670 -0.090522 -0.004320
		CHANNELS 3 Zrotation Yrotation Xrotation
		JOINT RightLeg
		{
			OFFSET -0.038290 -0.382569 -0.008850
			CHANNELS 3 Zrotation Yrotation Xrotation
			JOINT RightFoot
			{
				OFFSET 0.015774 -0.398415 -0.042312
				CHANNELS 3 Zrotation Yrotation Xrotation
				JOINT RightToe
				{
					OFFSET -0.025372 -0.048144 0.123348
					CHANNELS 3 Zrotation Yrotation Xrotation
					End Site
					{
						OFFSET 0.000000 0.000000 0.000000
					}
				}
			}
		}
	}
	JOINT Spine
	{
		OFFSET -0.002533 0.108963 -0.026696
		CHANNELS 3 Zrotation Yrotation Xrotation
		JOINT Spine1
		{
			OFFSET 0.005487 0.135180 0.001092
			CHANNELS 3 Zrotation Yrotation Xrotation
			JOINT Spine2
			{
				OFFSET 0.001457 0.052922 0.025425
				CHANNELS 3 Zrotation Yrotation Xrotation
				JOINT Neck
				{
					OFFSET -0.002778 0.213870 -0.042857
					CHANNELS 3 Zrotation Yrotation Xrotation
					JOINT Head
					{
						OFFSET 0.005152 0.064970 0.051349
						CHANNELS 3 Zrotation Yrotation Xrotation
						End Site
						{
							OFFSET 0.000000 0.000000 0.000000
						}
					}
				}
				JOINT LeftShoulder
				{
					OFFSET 0.078845 0.121749 -0.034090
					CHANNELS 3 Zrotation Yrotation Xrotation
					JOINT LeftArm
					{
						OFFSET 0.090977 0.030469 -0.008868
						CHANNELS 3 Zrotation Yrotation Xrotation
						JOINT LeftForeArm
						{
							OFFSET 0.259612 -0.012772 -0.027456
							CHANNELS 3 Zrotation Yrotation Xrotation
							JOINT LeftHand
							{
								OFFSET 0.249234 0.008986 -0.001171
								CHANNELS 3 Zrotation Yrotation Xrotation
								End Site
								{
									OFFSET 0.000000 0.000000 0.000000
								}
							}
						}
					}
				}
				JOINT RightShoulder
				{
					OFFSET -0.081759 0.118833 -0.038615
					CHANNELS 3 Zrotation Yrotation Xrotation
					JOINT RightArm
					{
						OFFSET -0.096012 0.032551 -0.009143
						CHANNELS 3 Zrotation Yrotation Xrotation
						JOINT RightForeArm
						{
							OFFSET -0.253742 -0.013329 -0.021401
							CHANNELS 3 Zrotation Yrotation Xrotation
							JOINT RightHand
							{
								OFFSET -0.255298 0.007772 -0.005559
								CHANNELS 3 Zrotation Yrotation Xrotation
								End Site
								{
									OFFSET 0.000000 0.000000 0.000000
								}
							}
						}
					}
				}
			}
		}
	}
}
MOTION
Frames: 16
Frame Time: 0.050000
-0.018943 0.958057 -0.039111 0.021243 -7.476043 4.326779 3.314457 -0.279373 -3.972714 2.107474 -0.219253 -0.682473 2.930068 9.030823 15.174917 0.000000 0.000000 0.000000 -1.654993 0.695782 -7.262239 -4.263559 0.390162 -0.091270 3.772145 -0.704755 15.577725 0.000000 0.000000 0.000000 5.300249 -0.085528 -0.226103 1.026621 -0.494751 2.613672 -13.645213 5.711176 2.937658 14.866616 -16.127128 10.301424 0.000000 0.000000 0.000000 4.674824 -11.123373 3.807357 -32.084742 -27.770041 2.888763 -48.319299 -61.400479 30.775574 0.000000 0.000000 0.000000 0.227147 -5.078888 -1.809457 47.519488 12.258703 0.509407 83.357390 63.623715 63.016391 0.000000 0.000000 0.000000 
-0.019335 0.958408 -0.038579 0.134537 -7.339648 3.806729 3.585065 -0.253607 -3.741364 1.466980 -0.172320 -0.101252 2.824804 8.882286 15.102148 0.000000 0.000000 0.000000 -2.267279 0.671670 -7.113350 -3.328396 0.361898 0.735032 3.664146 -0.782228 15.404834 0.000000 0.000000 0.000000 5.111037 -0.101006 0.078754 0.782183 -0.378237 2.782647 -13.578533 5.958065 2.743778 14.343118 -15.997695 11.205959 0.000000 0.000000 0.000000 8.458165 -10.245986 3.739354 -29.617481 -28.080952 2.548263 -66.081622 -66.862479 47.238930 0.000000 0.000000 0.000000 -2.828237 -5.629373 -1.751281 45.994020 12.138875 0.522232 97.639987 65.560094 78.892877 0.000000 0.000000 0.000000 
-0.019862 0.959934 -0.037477 0.147168 -6.628821 3.542409 3.860005 -0.248773 -3.751078 1.098211 -0.143844 0.311271 2.383676 8.338291 15.299364 0.000000 0.000000 0.000000 -2.152631 0.657598 -6.971996 -3.441971 0.421820 1.335911 3.368986 -1.301789 15.654423 0.000000 0.000000 0.000000 4.631888 -0.104992 0.251489 0.702710 -0.340120 1.712034 -13.048014 5.489870 3.686224 13.255219 -15.915712 13.846488 0.000000 0.000000 0.000000 13.394727 -6.887690 3.198701 -23.767122 -28.107136 1.630058 -109.415359 -71.848712 92.525650 0.000000 0.000000 0.000000 -7.253280 -6.700194 -1.658568 40.822217 12.316685 0.370144 120.244977 65.462212 103.686011 0.000000 0.000000 0.000000 
-0.020576 0.962232 -0.035857 -0.139492 -5.924083 3.603854 4.175043 -0.256628 -3.953337 1.241919 -0.170139 0.554560 1.947506 7.841990 15.703183 0.000000 0.000000 0.000000 -2.028214 0.634590 -6.701602 -3.146781 0.376903 1.106867 3.466347 -1.416055 16.586012 0.000000 0.000000 0.000000 4.519251 -0.071857 -0.151132 0.942436 -0.457638 1.287765 -12.832522 5.846158 4.345059 12.396056 -16.233702 16.544788 0.000000 0.000000 0.000000 18.741582 -3.785725 3.117649 -17.459402 -27.569611 0.597019 -156.919187 -66.844371 146.981119 0.000000 0.000000 0.000000 -12.854008 -9.610765 -1.879189 36.555006 12.182570 0.278082 144.231562 64.095505 134.990101 0.000000 0.000000 0.000000 
-0.021474 0.964319 -0.033641 -0.268318 -5.496326 3.893663 4.366084 -0.255332 -3.896321 1.282364 -0.151636 0.024807 1.618304 7.509044 16.255083 0.000000 0.000000 0.000000 -1.799896 0.632935 -6.642974 -3.336325 0.387295 0.942538 3.612351 -1.265601 17.012728 0.000000 0.000000 0.000000 4.669726 -0.084897 -0.088897 0.316581 -0.140107 -0.161765 -11.944774 5.817929 5.548709 12.514818 -17.216093 18.435006 0.000000 0.000000 0.000000 22.619387 1.376822 2.716931 -13.372458 -27.635786 -0.008710 179.730747 -58.322417 -176.970848 0.000000 0.000000 0.000000 -18.386378 -13.904677 -1.989505 33.391809 12.165019 0.189371 165.208662 60.082511 166.132212 0.000000 0.000000 0.000000 
-0.022251 0.965694 -0.031419 -0.390021 -4.767011 3.992020 4.346946 -0.265444 -3.939703 1.706739 -0.195162 -0.061042 1.201455 7.034936 16.489485 0.000000 0.000000 0.000000 -1.849924 0.575303 -5.998404 -3.152429 0.332040 0.380295 3.767573 -0.821159 16.954168 0.000000 0.000000 0.000000 4.278309 -0.041139 -0.585867 0.501914 -0.231337 0.043461 -11.306571 5.451894 5.836172 11.150109 -16.381315 20.359295 0.000000 0.000000 0.000000 25.289572 6.354924 2.487586 -11.286554 -28.596502 -0.274340 168.441241 -50.665434 -152.221770 0.000000 0.000000 0.000000 -22.985916 -18.031401 -1.781081 31.292618 11.376231 -0.006463 -177.944279 55.992918 -163.194925 0.000000 0.000000 0.000000 
-0.022764 0.967055 -0.029151 -0.537244 -4.066811 4.176860 4.427103 -0.265379 -3.823189 1.980241 -0.198159 -0.581820 0.776633 6.567502 16.785754 0.000000 0.000000 0.000000 -1.859555 0.579759 -6.055948 -2.974113 0.355717 0.951886 3.789976 -0.469194 16.568910 0.000000 0.000000 0.000000 4.341524 -0.044680 -0.601357 0.383882 -0.155982 -1.132361 -10.653305 5.007774 6.957845 10.981704 -16.435682 21.017445 0.000000 0.000000 0.000000 26.249040 10.427002 2.076970 -9.895697 -28.842050 -0.483336 160.740188 -43.169552 -128.746382 0.000000 0.000000 0.000000 -25.711269 -21.004161 -1.550531 29.989876 10.602760 -0.248225 -166.764115 52.704655 -140.176045 0.000000 0.000000 0.000000 
-0.022983 0.967582 -0.027261 -0.512554 -3.467676 4.039367 4.342369 -0.249867 -3.426631 2.172620 -0.194741 -1.007704 0.423018 6.149627 16.866524 0.000000 0.000000 0.000000 -2.026288 0.537752 -5.602754 -2.918661 0.338993 0.748723 3.956640 -0.186068 16.854563 0.000000 0.000000 0.000000 4.218615 -0.028186 -0.771415 0.072066 -0.012687 -1.032603 -10.226837 4.968647 7.190776 9.652978 -15.015073 21.415472 0.000000 0.000000 0.000000 27.115389 13.182651 2.016371 -9.694585 -29.643703 -0.522490 155.068861 -37.461189 -109.031378 0.000000 0.000000 0.000000 -27.482307 -23.395428 -1.431400 30.251429 9.457423 -0.455633 -160.861014 49.911358 -126.092812 0.000000 0.000000 0.000000 
-0.023015 0.968614 -0.025953 -0.470242 -3.381487 4.272043 4.380154 -0.253860 -3.454364 2.027835 -0.164053 -1.302715 0.315174 6.076198 17.180174 0.000000 0.000000 0.000000 -2.126444 0.545545 -5.695551 -3.003891 0.348352 0.748911 4.226082 0.278923 16.923231 0.000000 0.000000 0.000000 4.274218 -0.020391 -0.923510 0.016294 0.015863 -1.179075 -10.287276 5.036932 7.089566 9.161398 -14.484941 21.554962 0.000000 0.000000 0.000000 27.355738 14.972057 1.933227 -8.889742 -29.787080 -0.647091 150.675017 -34.508491 -95.608306 0.000000 0.000000 0.000000 -27.739189 -25.158684 -1.554355 29.520528 9.578157 -0.428507 -155.701751 49.277941 -115.700609 0.000000 0.000000 0.000000 
-0.023076 0.969389 -0.025531 -0.497957 -3.146011 4.482826 4.222758 -0.259755 -3.439984 2.388715 -0.174149 -1.763255 0.149512 5.929258 17.441871 0.000000 0.000000 0.000000 -2.227281 0.542287 -5.660704 -2.954986 0.345689 0.774493 4.413288 0.880445 16.451747 0.000000 0.000000 0.000000 4.453305 -0.004832 -1.184814 0.070539 -0.007598 -1.218882 -10.310455 5.248583 7.297363 8.681340 -13.895884 21.327556 0.000000 0.000000 0.000000 27.028057 16.288090 1.787804 -8.009541 -30.676161 -0.816406 148.169739 -32.720005 -88.125448 0.000000 0.000000 0.000000 -28.041176 -26.103742 -1.663152 28.889963 9.243324 -0.501593 -153.628128 47.698215 -109.656503 0.000000 0.000000 0.000000 
-0.023155 0.969787 -0.025805 -0.533986 -3.037253 4.478549 4.100251 -0.267425 -3.532981 2.692194 -0.208940 -1.659494 0.087959 5.874893 17.520039 0.000000 0.000000 0.000000 -2.267768 0.523346 -5.436877 -3.015144 0.341366 0.607587 4.694632 1.510044 16.239159 0.000000 0.000000 0.000000 4.471273 -0.036045 -0.804196 0.101955 -0.016439 -1.514493 -10.408004 5.350285 7.884719 8.545150 -13.653542 20.972301 0.000000 0.000000 0.000000 27.534371 17.098671 1.811148 -6.423416 -30.769495 -1.103273 145.260699 -31.320416 -80.893345 0.000000 0.000000 0.000000 -28.149701 -26.752896 -1.766079 27.700572 8.915338 -0.600571 -149.574276 46.855930 -101.374542 0.000000 0.000000 0.000000 
-0.023174 0.969901 -0.026275 -0.619944 -2.951783 4.462875 4.038303 -0.273501 -3.618083 2.979717 -0.242840 -1.553184 0.055238 5.839963 17.517186 0.000000 0.000000 0.000000 -2.041855 0.525011 -5.441144 -3.242754 0.378079 0.780496 4.645404 1.571815 15.958503 0.000000 0.000000 0.000000 4.637806 -0.062391 -0.514157 -0.071697 0.070102 -1.935348 -10.217658 5.154153 8.547788 8.671859 -13.513454 20.249106 0.000000 0.000000 0.000000 27.617321 18.013296 1.616652 -5.284530 -31.052972 -1.301749 143.623896 -29.970200 -75.607097 0.000000 0.000000 0.000000 -28.039855 -27.608537 -1.868319 26.478483 9.408013 -0.569591 -147.266974 45.804937 -96.334671 0.000000 0.000000 0.000000 
-0.023036 0.969552 -0.026370 -0.666802 -3.124754 4.629781 3.960557 -0.281513 -3.736158 3.168548 -0.258705 -1.607413 0.174504 5.975173 17.469742 0.000000 0.000000 0.000000 -1.904649 0.533482 -5.516558 -3.409009 0.379689 0.567309 4.672898 1.631292 15.870595 0.000000 0.000000 0.000000 4.599899 -0.069559 -0.443120 -0.108076 0.086367 -1.970324 -10.189347 4.969913 8.982456 8.862008 -13.372434 19.395365 0.000000 0.000000 0.000000 27.365807 18.443152 1.390605 -4.490283 -30.867001 -1.413244 143.612452 -29.349166 -74.105284 0.000000 0.000000 0.000000 -27.654347 -27.861164 -1.961376 25.976005 9.290991 -0.639142 -145.255882 45.273157 -92.666115 0.000000 0.000000 0.000000 
-0.022604 0.969257 -0.026128 -0.685544 -3.174000 4.630424 3.836723 -0.272400 -3.548049 3.365355 -0.260412 -1.888890 0.207179 6.006569 17.431287 0.000000 0.000000 0.000000 -1.779952 0.528491 -5.447135 -3.769822 0.414608 0.527392 4.836372 2.001381 15.703117 0.000000 0.000000 0.000000 4.604490 -0.047743 -0.703878 0.024393 0.018969 -1.537474 -10.400584 4.653591 9.337470 8.974385 -13.553607 19.655023 0.000000 0.000000 0.000000 26.509096 18.178448 1.088784 -4.238376 -31.019466 -1.448209 144.310484 -29.703556 -75.524828 0.000000 0.000000 0.000000 -26.369044 -27.753602 -2.278599 25.993641 9.802770 -0.599344 -144.206784 45.492826 -91.709689 0.000000 0.000000 0.000000 
-0.022081 0.968817 -0.025930 -0.497947 -3.481490 4.582477 3.529319 -0.270376 -3.469159 3.436263 -0.272511 -1.833036 0.380691 6.199783 17.366241 0.000000 0.000000 0.000000 -1.803915 0.524310 -5.397490 -4.095287 0.459769 0.692589 4.733705 2.101275 15.011290 0.000000 0.000000 0.000000 4.344174 -0.032954 -0.822821 0.202917 -0.065597 -1.423617 -10.600789 4.755032 9.697326 9.012419 -13.618744 19.688523 0.000000 0.000000 0.000000 25.927745 17.550142 0.962564 -4.576481 -31.969954 -1.443161 144.831704 -30.676503 -78.086255 0.000000 0.000000 0.000000 -25.258050 -27.448142 -2.577505 26.380206 10.350455 -0.527539 -144.127741 44.637172 -90.426576 0.000000 0.000000 0.000000 
-0.021613 0.968632 -0.026035 -0.548316 -3.876822 4.239033 3.477613 -0.240313 -3.047298 3.509444 -0.285301 -1.786177 0.588815 6.434952 17.302007 0.000000 0.000000 0.000000 -1.702216 0.481357 -4.903954 -4.244516 0.465216 0.582186 4.841872 2.460924 14.560132 0.000000 0.000000 0.000000 4.580502 -0.045209 -0.640522 0.188461 -0.067749 -0.993073 -10.691995 4.292628 9.812342 9.257341 -13.619278 19.251794 0.000000 0.000000 0.000000 25.040725 16.820200 0.666175 -4.820495 -33.207262 -1.405177 145.463099 -31.794297 -80.568542 0.000000 0.000000 0.000000 -24.144757 -26.771330 -2.665931 26.346994 12.569475 -0.174995 -144.108221 43.076336 -88.697791 0.000000 0.000000 0.000000 
